<?xml version="1.0" encoding="UTF-8" standalone="no"?>
<!-- Created with Inkscape (http://www.inkscape.org/) -->

<svg
   width="78.608719mm"
   height="85.141258mm"
   viewBox="0 0 78.608719 85.141258"
   version="1.1"
   id="svg5"
   xmlns="http://www.w3.org/2000/svg"
   xmlns:svg="http://www.w3.org/2000/svg">
  <defs
     id="defs2" />
  <g
     id="layer1"
     transform="translate(-58.700397,-82.235853)">
    <rect
       style="fill:#f4e3d7;stroke-width:0.264583"
       id="rect118"
       width="75.508469"
       height="84.317795"
       x="60.406776"
       y="83.059319" />
    <path
       style="fill:none;stroke:#000000;stroke-width:0.264583px;stroke-linecap:butt;stroke-linejoin:miter;stroke-opacity:1"
       d="m 71.307756,95.072644 c -0.0066,1.291936 -0.143343,2.424454 0.667407,3.559503 0.389304,0.545026 0.802642,0.757564 1.334814,1.112345 2.125624,1.417078 1.200097,1.334818 2.447158,1.334818 0.296626,0 0.593251,0 0.889876,0 0.07416,0 0.152118,0.0234 0.222469,0 0.15731,-0.0524 0.287629,-0.17004 0.444938,-0.22247 0.07035,-0.0235 0.152118,0.0234 0.222469,0 0.404054,-0.13469 0.412869,-0.1904 0.667407,-0.44494 0.07416,-0.0742 0.175568,-0.12867 0.222469,-0.22247 0.03316,-0.0663 -0.02345,-0.15212 0,-0.222469 0.05244,-0.157309 0.170033,-0.287628 0.222469,-0.444938 0.04376,-0.131284 0,-0.988046 0,-1.112345 0,-0.146186 0.04184,-0.54189 0,-0.667407 -0.172004,-0.516011 -0.621624,-1.110197 -0.889876,-1.557283 -0.02312,-0.03853 -0.436956,-0.881894 -0.444938,-0.889875 -0.262182,-0.262183 -0.600344,-0.435782 -0.889876,-0.667407 -0.08189,-0.06551 -0.128668,-0.175569 -0.222469,-0.222469 -0.06633,-0.03316 -0.152118,0.02345 -0.222469,0 -0.766898,-0.255633 -0.164797,-0.222469 -0.667407,-0.222469 -0.747525,0 -1.514631,-0.08184 -2.224689,0.222469 -0.245756,0.105324 -0.42826,0.325364 -0.667407,0.444938 -0.06633,0.03316 -0.156142,-0.03316 -0.222469,0 -0.0938,0.0469 -0.120728,0.197033 -0.222469,0.222469 -0.215827,0.05396 -0.444938,0 -0.667407,0 z"
       id="path183" />
    <path
       style="fill:none;stroke:#000000;stroke-width:0.264583px;stroke-linecap:butt;stroke-linejoin:miter;stroke-opacity:1"
       d="m 96.446751,93.73783 c -1.163947,0.279041 -2.383978,0.572367 -3.337036,1.334814 -0.163783,0.131027 -0.281154,0.313911 -0.444937,0.444937 -1.114292,0.891433 -0.572103,-0.03172 -1.779751,1.779752 -0.13008,0.195119 -0.13538,0.449677 -0.22247,0.667407 -0.0123,0.03075 -0.442841,0.879383 -0.444939,0.889876 -0.07272,0.363581 0,0.741563 0,1.112345 0,0.222469 0,0.444939 0,0.667409 0,0.14831 -0.03597,0.30105 0,0.44494 0.03103,0.12412 0.587031,1.23836 0.667409,1.33481 0.674335,0.8092 0.798721,0.82911 1.557282,1.33481 0.222469,0.14832 0.42826,0.32537 0.667406,0.44494 0.297291,0.14865 1.300678,0.38792 1.557282,0.44494 1.511935,0.33598 2.444649,0.44494 4.226912,0.44494 0.258931,0 1.045821,-0.2282 1.334811,-0.44494 0.1678,-0.12585 0.29663,-0.29663 0.44494,-0.44494 0.14831,-0.14831 0.32859,-0.27042 0.44494,-0.44494 0.0411,-0.0617 0,-0.14831 0,-0.22247 0,-0.0742 0,-0.14831 0,-0.22246 0,-0.29663 0,-0.59326 0,-0.88988 0,-0.18629 0.0423,-0.94316 0,-1.11235 -0.0402,-0.16086 -0.18225,-0.28407 -0.22247,-0.44493 -0.036,-0.14389 0.036,-0.30106 0,-0.44494 -0.0402,-0.16087 -0.14831,-0.29663 -0.22247,-0.444939 -0.14831,-0.296625 -0.29662,-0.593251 -0.44494,-0.889876 -0.14831,-0.296625 -0.274309,-0.605499 -0.444936,-0.889876 -0.137562,-0.229271 -0.310216,-0.436454 -0.444936,-0.667407 -0.384699,-0.659483 -0.727647,-1.342737 -1.112346,-2.002221 -0.134723,-0.230952 -0.296627,-0.444937 -0.444939,-0.667406 -0.148312,-0.222469 -0.239535,-0.496238 -0.444936,-0.667407 -0.254773,-0.212309 -0.593252,-0.296626 -0.889876,-0.444938"
       id="path185" />
    <path
       style="fill:none;stroke:#000000;stroke-width:0.264583px;stroke-linecap:butt;stroke-linejoin:miter;stroke-opacity:1"
       d="m 76.86948,108.64325 c 1.402677,0.12618 2.824933,-0.1402 4.226911,0 0.752496,0.0753 1.493975,0.25008 2.224689,0.44494 0.385861,0.10289 0.727072,0.33986 1.112345,0.44494 0.435181,0.11868 0.898969,0.10624 1.334814,0.22247 0.679755,0.18126 1.334815,0.44493 2.002221,0.6674 0.22247,0.0742 0.437457,0.17648 0.667406,0.22247 0.145434,0.0291 0.312283,-0.0663 0.44494,0 0.02236,0.0112 0.01423,0.62468 0,0.66741 -0.05244,0.15731 -0.170035,0.28763 -0.22247,0.44494 -0.02344,0.0704 0.03316,0.15614 0,0.22247 -0.301263,0.60252 -0.732287,1.03354 -1.334815,1.33481 -0.06633,0.0332 -0.15144,-0.0213 -0.222467,0 -6.623862,1.98716 0.09604,0.27231 -2.669629,0.66741 -0.302681,0.0432 -0.586482,0.18454 -0.889876,0.22247 -0.294334,0.0368 -0.59325,0 -0.889876,0 -0.444937,0 -0.889876,0 -1.334813,0 -0.148313,0 -0.301054,0.036 -0.444938,0 -1.074291,-0.26858 0.01103,-0.10573 -0.667407,-0.44494 -0.06633,-0.0332 -0.170033,0.0524 -0.222469,0 -0.05244,-0.0524 0.02037,-0.15117 0,-0.22247 -0.128846,-0.45096 -0.284659,-0.89405 -0.444938,-1.33482 -0.136473,-0.3753 -0.266346,-0.75516 -0.444938,-1.11234 -0.0938,-0.1876 -0.351137,-0.25734 -0.444938,-0.44494 -0.02925,-0.0585 0,-0.77354 0,-0.88987"
       id="path187" />
    <path
       style="fill:none;stroke:#000000;stroke-width:0.264583px;stroke-linecap:butt;stroke-linejoin:miter;stroke-opacity:1"
       d="m 71.085287,113.76004 c 0.849423,0.3551 -0.01203,1.08828 0.222469,1.55728 0.0938,0.1876 0.31909,0.27714 0.444938,0.44494 0.198982,0.26531 0.245955,0.62457 0.444938,0.88987 0.431487,0.57532 0.528573,0.4034 1.112345,0.88988 0.241696,0.20141 0.444938,0.44494 0.667406,0.66741 0.593251,0.59325 1.186502,1.1865 1.779752,1.77975 0.222469,0.22247 0.444938,0.44494 0.667407,0.66741 0.296625,0.29662 0.540838,0.65718 0.889876,0.88987 0.332274,0.22152 0.763256,0.251 1.112345,0.44494 0.324121,0.18007 0.588158,0.45189 0.889876,0.66741 0.217571,0.15541 0.444938,0.29662 0.667407,0.44493 0.222469,0.14832 0.42826,0.32537 0.667407,0.44494 0.209745,0.10488 0.444938,0.14831 0.667407,0.22247 0.889876,0.29663 1.767707,0.63218 2.669627,0.88988 0.142607,0.0407 0.296625,0 0.444938,0 0.593251,0 1.186501,0 1.779752,0 0.519094,0 1.038189,0 1.557283,0 0.296625,0 0.596231,0.0419 0.889876,0 0.232145,-0.0332 0.439904,-0.1656 0.667406,-0.22247 0.366834,-0.0917 0.743225,-0.14045 1.112346,-0.22247 0.838033,-0.18623 0.814059,-0.1972 1.557281,-0.44494 0.22247,-0.0742 0.441929,-0.15804 0.667409,-0.22247 0.293989,-0.084 0.608844,-0.10202 0.889876,-0.22247 0.245756,-0.10532 0.442497,-0.30035 0.667406,-0.44493 0.815719,-0.5191 1.631439,-1.03819 2.447158,-1.55729 0.148315,-0.14831 0.281154,-0.31391 0.444939,-0.44493 0.208785,-0.16703 0.444937,-0.29663 0.667406,-0.44494 0.444939,-0.29663 0.899671,-0.57906 1.334815,-0.88988 0.296625,-0.22247 0.593249,-0.44494 0.889872,-0.66741 0.22247,-0.22247 0.41803,-0.47558 0.66741,-0.6674 0.71748,-0.55191 1.47877,-1.04447 2.22469,-1.55729 0.44066,-0.30295 0.9288,-0.54186 1.33481,-0.88987 0.59648,-0.51127 -0.0958,-0.44494 0.44494,-0.44494"
       id="path189" />
    <path
       style="fill:none;stroke:#000000;stroke-width:0.264583px;stroke-linecap:butt;stroke-linejoin:miter;stroke-opacity:1"
       d="m 73.754915,99.077085 c 0,-2.930718 -0.262183,-0.365511 0.222468,-1.334814 0.104873,-0.209745 0.117596,-0.457661 0.222469,-0.667407 0.0469,-0.0938 0.175569,-0.128667 0.222469,-0.222469 0.03316,-0.06633 -0.05244,-0.170032 0,-0.222469 0.05244,-0.05244 0.222469,-0.07416 0.222469,0 0,0.104873 -0.175568,0.128668 -0.222469,0.222469 -0.03878,0.07756 0,1.171504 0,1.334814 0,0.07416 0.04449,0.163144 0,0.222469 -0.188771,0.251695 -0.492888,0.929186 -0.667406,0.667407 -0.250212,-0.375317 0.09855,-0.901094 0.222468,-1.334814 0.02881,-0.100838 0.117596,-0.222469 0.222469,-0.222469 0.07416,0 0,0.148313 0,0.222469 0,0.618923 0.05244,-0.242325 -0.222469,0.444938 -0.113554,0.283886 -0.148312,1.186501 -0.222468,0.889876 -0.179856,-0.719422 0,-1.483126 0,-2.22469 0,-0.07416 0,-0.148312 0,-0.222469 0,-0.07416 0.07416,-0.222468 0,-0.222468 -0.07416,0 0,0.148312 0,0.222468 0,0.148313 0,0.296626 0,0.444938 0,0.667407 0,1.334814 0,2.002221 z"
       id="path191" />
    <path
       style="fill:none;stroke:#000000;stroke-width:0.264583px;stroke-linecap:butt;stroke-linejoin:miter;stroke-opacity:1"
       d="m 93.999591,100.85684 c -0.148313,0.37078 -0.296625,0.74156 -0.444937,1.11234 -0.07416,0 -0.22247,-0.0741 -0.22247,0 0,0.0742 0.184317,0.0636 0.22247,0 0.47035,-0.78392 0.745942,-2.388333 0,0.22247 -0.02037,0.0713 0,0.14831 0,0.22247 -0.07416,0.14831 -0.170034,0.28763 -0.22247,0.44494 -0.02344,0.0704 -0.07416,0.22247 0,0.22247 0.07416,0 -0.05244,-0.17004 0,-0.22247 0.05244,-0.0524 0.189304,0.0663 0.22247,0 0.06633,-0.13266 -0.03217,-0.30016 0,-0.44494 0.117113,-0.52701 0.82668,-1.93903 0.444937,-1.55728 -0.586256,0.58625 -0.715331,1.49683 -1.112346,2.22469 -0.05022,0.0921 -0.222467,0.32734 -0.222467,0.22247 0,-0.17826 0.605012,-1.00004 0.667406,-1.11235 0.241586,-0.43485 0.444937,-0.88988 0.667407,-1.33481 z"
       id="path193" />
    <path
       style="fill:none;stroke:#000000;stroke-width:0.264583px;stroke-linecap:butt;stroke-linejoin:miter;stroke-opacity:1"
       d="m 110.4623,93.960299 c 0.26127,0.609645 0.6286,1.170106 0.88987,1.779752 0.0924,0.215542 0.10182,0.466322 0.22247,0.667407 0.55025,0.917086 1.22206,1.757044 1.77975,2.669627 0.2594,0.42447 0.37482,0.932505 0.66741,1.334815 0.86146,1.1845 1.53962,1.26853 2.66963,2.22469 2.87031,2.42872 -0.36407,0.24834 3.11456,2.8921 2.08457,1.58426 4.77662,3.41699 7.11901,4.67184 0.93592,0.50139 1.93254,0.88029 2.8921,1.33482 1.07778,0.51053 1.36601,0.75196 2.44715,1.11234 0.29007,0.0967 0.59589,0.13847 0.88988,0.22247 0.0602,0.0172 0.88088,0.3382 1.11234,0.22247 0.0938,-0.0469 0.13521,-0.1643 0.22247,-0.22247 0.13797,-0.092 0.32769,-0.10522 0.44494,-0.22247 0.72485,-0.72485 1.81945,-1.73449 2.00222,-2.89209 0.16233,-1.0281 0.16777,-2.07517 0.22247,-3.11457 0.0414,-0.78726 0.0305,-1.4659 -0.22247,-2.22469 -0.49729,-1.49187 -1.19829,-3.26497 -2.00222,-4.671848 -0.26531,-0.464292 -0.63381,-0.86536 -0.88987,-1.334814 -0.19123,-0.350582 -0.27969,-0.748795 -0.44494,-1.112345 -0.20585,-0.452867 -0.47608,-0.875623 -0.66741,-1.334813 -0.79555,-1.909314 -0.0394,-1.168697 -1.55728,-3.337035 -1.85566,-2.650943 -4.47733,-4.837781 -6.67407,-7.119007 -1.31376,-1.576511 -0.7028,-0.925272 -1.77975,-2.002221 -0.48843,-0.488424 -0.71971,-0.907309 -1.33482,-1.112345 -0.1407,-0.0469 -0.29662,0 -0.44493,0 -0.0742,0 -0.15212,-0.02345 -0.22247,0 -0.80475,0.268249 -1.55337,1.497262 -2.00222,2.002221 -0.20902,0.235149 -0.45839,0.432258 -0.66741,0.667407 -0.62425,0.702284 -1.07735,1.400165 -1.77975,2.00222 -0.28152,0.241302 -0.6277,0.405225 -0.88988,0.667407 -0.11725,0.117252 -0.10522,0.327687 -0.22247,0.444938 -0.18906,0.189063 -0.46956,0.265083 -0.6674,0.444938 -0.6208,0.564361 -1.16327,1.210687 -1.77976,1.779752 -0.3489,0.322069 -0.7594,0.57223 -1.11234,0.889876 -1.18983,1.070847 -1.42971,1.493104 -2.44716,2.892097 -0.40682,0.559373 -0.72107,1.104524 -0.88988,1.779752 -0.036,0.143884 0,0.296625 0,0.444938"
       id="path195" />
    <path
       style="fill:none;stroke:#000000;stroke-width:0.264583px;stroke-linecap:butt;stroke-linejoin:miter;stroke-opacity:1"
       d="m 124.92278,110.64547 c 0.059,0.56858 -0.38532,1.02072 -0.44494,1.55728 -0.0491,0.44222 0.037,0.89142 0,1.33482 -0.0375,0.44952 -0.15556,0.88873 -0.22247,1.33481 -0.15557,1.03713 -0.30324,2.07545 -0.44494,3.11457 -0.0808,0.59238 -0.0955,1.19553 -0.22246,1.77975 -0.24456,1.12494 -0.59326,2.22469 -0.88988,3.33703 -0.12818,0.48067 -0.88538,3.59321 -1.33482,4.67185 -0.19132,0.45919 -0.44493,0.88988 -0.6674,1.33482 -0.59325,1.1865 -1.01202,2.47769 -1.77975,3.5595 -0.8806,1.24084 -2.02273,2.27731 -3.11457,3.33704 -1.43182,1.3897 -2.8531,2.80723 -4.44938,4.00444 -2.20921,1.6569 -6.46727,3.87835 -9.34369,4.67184 -1.31815,0.36363 -2.663626,0.62172 -4.004447,0.88988 -0.514181,0.10284 -1.038188,0.14831 -1.557282,0.22247 -0.519097,0.0742 -1.03292,0.22247 -1.557285,0.22247 -2.094092,0 -4.164716,-0.37249 -6.22913,-0.66741 -0.433962,-0.062 -2.390502,-0.32918 -2.892097,-0.44494 -0.76385,-0.17627 -2.12618,-0.61955 -2.892096,-0.88987 -0.662268,-0.23374 -3.15606,-1.10046 -4.004442,-1.55728 -0.470831,-0.25353 -0.886457,-0.59845 -1.334814,-0.88988 -4.979863,-3.23691 -1.381248,-0.76079 -4.894317,-3.33704 -0.51442,-0.37724 -1.017932,-0.7717 -1.557283,-1.11234 -0.871033,-0.55013 -1.786228,-1.02724 -2.669628,-1.55728 -0.229272,-0.13757 -0.478345,-0.25588 -0.667407,-0.44494 -0.189062,-0.18906 -0.26887,-0.46619 -0.444938,-0.66741 -0.483415,-0.55247 -1.038188,-1.03819 -1.557283,-1.55728 -0.148312,-0.14831 -0.323025,-0.27426 -0.444938,-0.44494 -0.251328,-0.35186 -0.438234,-0.74567 -0.667406,-1.11234 -0.479948,-0.76792 -0.510114,-0.64586 -0.889877,-1.55729 -2.381144,-5.71475 0.400366,0.97863 -0.889875,-2.89209 -0.104873,-0.31462 -0.340065,-0.57526 -0.444938,-0.88988 -0.193376,-0.58013 -0.28404,-1.18979 -0.444938,-1.77975 -0.0617,-0.22624 -0.183917,-0.4361 -0.222469,-0.66741 -0.03657,-0.21944 0,-0.44494 0,-0.6674 0,-0.59325 0,-1.18651 0,-1.77976 0,-0.29662 0,-0.59325 0,-0.88987 0,-0.29663 0.03679,-0.59554 0,-0.88988 -0.03792,-0.30339 -0.179229,-0.58719 -0.222469,-0.88987 -0.05244,-0.36706 0.06096,-0.74661 0,-1.11235 -0.2072,-1.2432 -0.115823,-0.51202 -0.444938,-1.33481 -0.08709,-0.21773 -0.101818,-0.46633 -0.222469,-0.66741 -0.107913,-0.17985 -0.328592,-0.27042 -0.444938,-0.44494 -0.08227,-0.1234 0.0469,-0.30423 0,-0.44493 -0.06076,-0.18227 -1.008234,-2.50416 -1.112345,-3.33704 -0.03679,-0.29433 0.03679,-0.59554 0,-0.88988 -0.03792,-0.30339 -0.2072,-0.5845 -0.222469,-0.88987 -0.05925,-1.18502 0,-2.373 0,-3.55951 0,-0.44493 0.04427,-0.89208 0,-1.33481 -0.03042,-0.30424 -0.184545,-0.58648 -0.222469,-0.88988 -0.03679,-0.29433 0,-0.59325 0,-0.88987 0,-1.27954 -0.03276,-1.23313 0.222469,-2.892098 0.04649,-0.302199 0.179229,-0.587195 0.222469,-0.889876 0.03146,-0.220233 -0.03657,-0.447965 0,-0.667407 0.03855,-0.231312 0.176479,-0.437458 0.222469,-0.667407 0.339721,-1.698602 -0.584046,1.307199 0.222469,-1.112344 0.191753,-0.575258 0.343246,-1.239484 0.667407,-1.779752 0.137563,-0.229272 0.316905,-0.432681 0.444938,-0.667407 2.017674,-4.035347 0.115529,-0.415018 1.334814,-2.447159 0.517594,-0.862656 -0.152579,-0.01903 0.667407,-1.112345 0.188099,-0.250799 1.011366,-1.011366 1.112345,-1.112345 0.148312,-0.148312 0.31909,-0.277141 0.444937,-0.444938 0.09949,-0.132654 0.105218,-0.327686 0.22247,-0.444938 0.262182,-0.262182 0.605033,-0.430038 0.889875,-0.667407 0.322263,-0.268551 0.562308,-0.627821 0.889876,-0.889875 0.208785,-0.167028 0.453508,-0.284514 0.667407,-0.444939 0.0839,-0.06292 0.13521,-0.164295 0.222469,-0.222468 1.552782,-1.035188 -1.093763,0.987173 1.112345,-0.667407 0.0839,-0.06292 0.128668,-0.175569 0.222469,-0.222469 0.06633,-0.03316 0.222469,0.07416 0.222469,0 0,-0.07416 -0.148313,0 -0.222469,0 -0.07416,0 -0.148312,0 -0.222469,0 0.519094,-0.222469 1.012425,-0.51881 1.557283,-0.667407 0.488935,-0.133346 2.231956,0.193775 2.447159,0.222469 0.592623,0.07902 1.190245,0.122834 1.779752,0.222469 4.676208,0.790345 9.344011,1.62964 14.015545,2.447159 6.290313,1.100804 5.127884,0.852251 14.015542,3.114565 0.68177,0.173541 1.32686,0.470425 2.00222,0.667407 1.10517,0.322341 2.23012,0.573613 3.33704,0.889876 0.99964,0.285611 1.50732,0.513942 2.44716,0.889876 0.37078,0.148313 0.73349,0.318654 1.11234,0.444938 0.29007,0.09669 0.59981,0.125781 0.88988,0.222469 0.15731,0.05244 0.29662,0.148313 0.44494,0.222469 0.14831,0.07416 0.32768,0.105217 0.44493,0.222469 0.0524,0.05244 -0.14831,0 -0.22246,0 -0.22247,0 -0.44494,0 -0.66741,0 -0.74156,0 -1.48313,0 -2.22469,0"
       id="path197" />
  </g>
</svg>
